<svg width="1128" height="376" viewBox="0 0 1128 376" fill="none" xmlns="http://www.w3.org/2000/svg">
<rect width="1128" height="376" fill="white"/>
<path d="M169 207V340H36L169 207Z" fill="#7FD8BE"/>
<path d="M36 36H169V169L36 36Z" fill="#FDCA40"/>
<path d="M36 93L121.5 188L36 283V93Z" fill="#2E86AB"/>
<path d="M340 340H207V207L340 340Z" fill="#FDCA40"/>
<path d="M207 169V36H340L207 169Z" fill="#7FD8BE"/>
<path d="M340 283L245 188L340 93V283Z" fill="#2E86AB"/>
<path d="M473.004 235H477.989L484.877 210.487H485.132L492.02 235H496.99L506.082 202.273H500.873L494.513 227.633H494.209L487.577 202.273H482.432L475.8 227.617H475.496L469.12 202.273H463.927L473.004 235ZM518.363 235.495C523.716 235.495 527.504 232.859 528.59 228.864L524.068 228.049C523.205 230.366 521.128 231.548 518.411 231.548C514.32 231.548 511.572 228.896 511.444 224.165H528.894V222.472C528.894 213.603 523.589 210.135 518.028 210.135C511.188 210.135 506.682 215.344 506.682 222.887C506.682 230.51 511.124 235.495 518.363 235.495ZM511.46 220.586C511.651 217.102 514.176 214.082 518.059 214.082C521.767 214.082 524.196 216.831 524.212 220.586H511.46ZM534.579 235H539.245V231.181H539.645C540.508 232.747 542.265 235.479 546.74 235.479C552.684 235.479 556.999 230.717 556.999 222.775C556.999 214.817 552.62 210.135 546.692 210.135C542.138 210.135 540.492 212.915 539.645 214.434H539.357V202.273H534.579V235ZM539.261 222.727C539.261 217.598 541.498 214.194 545.669 214.194C550 214.194 552.173 217.853 552.173 222.727C552.173 227.649 549.936 231.404 545.669 231.404C541.562 231.404 539.261 227.889 539.261 222.727ZM585.252 235C595.223 235 600.992 228.816 600.992 218.588C600.992 208.409 595.223 202.273 585.587 202.273H574.657V235H585.252ZM579.595 230.685V206.587H585.284C592.443 206.587 596.134 210.87 596.134 218.588C596.134 226.339 592.443 230.685 584.98 230.685H579.595ZM617.328 235.495C622.681 235.495 626.469 232.859 627.555 228.864L623.033 228.049C622.17 230.366 620.093 231.548 617.376 231.548C613.285 231.548 610.536 228.896 610.409 224.165H627.859V222.472C627.859 213.603 622.553 210.135 616.992 210.135C610.153 210.135 605.646 215.344 605.646 222.887C605.646 230.51 610.089 235.495 617.328 235.495ZM610.425 220.586C610.616 217.102 613.141 214.082 617.024 214.082C620.732 214.082 623.161 216.831 623.177 220.586H610.425ZM653.411 210.455H648.281L642.081 229.343H641.825L635.609 210.455H630.48L639.396 235H644.51L653.411 210.455ZM667.601 235.495C672.955 235.495 676.742 232.859 677.829 228.864L673.306 228.049C672.443 230.366 670.366 231.548 667.649 231.548C663.558 231.548 660.81 228.896 660.682 224.165H678.132V222.472C678.132 213.603 672.827 210.135 667.266 210.135C660.426 210.135 655.92 215.344 655.92 222.887C655.92 230.51 660.362 235.495 667.601 235.495ZM660.698 220.586C660.89 217.102 663.415 214.082 667.298 214.082C671.005 214.082 673.434 216.831 673.45 220.586H660.698ZM688.212 202.273H683.434V235H688.212V202.273ZM704.979 235.495C711.898 235.495 716.421 230.43 716.421 222.839C716.421 215.201 711.898 210.135 704.979 210.135C698.059 210.135 693.537 215.201 693.537 222.839C693.537 230.43 698.059 235.495 704.979 235.495ZM704.995 231.484C700.472 231.484 698.363 227.537 698.363 222.823C698.363 218.125 700.472 214.13 704.995 214.13C709.485 214.13 711.595 218.125 711.595 222.823C711.595 227.537 709.485 231.484 704.995 231.484ZM721.754 244.205H726.532V231.181H726.82C727.683 232.747 729.44 235.479 733.915 235.479C739.859 235.479 744.174 230.717 744.174 222.775C744.174 214.817 739.796 210.135 733.867 210.135C729.313 210.135 727.667 212.915 726.82 214.434H726.42V210.455H721.754V244.205ZM726.436 222.727C726.436 217.598 728.673 214.194 732.844 214.194C737.175 214.194 739.348 217.853 739.348 222.727C739.348 227.649 737.111 231.404 732.844 231.404C728.737 231.404 726.436 227.889 726.436 222.727ZM760.106 235.495C765.46 235.495 769.247 232.859 770.334 228.864L765.811 228.049C764.948 230.366 762.871 231.548 760.154 231.548C756.063 231.548 753.315 228.896 753.187 224.165H770.637V222.472C770.637 213.603 765.332 210.135 759.771 210.135C752.931 210.135 748.425 215.344 748.425 222.887C748.425 230.51 752.867 235.495 760.106 235.495ZM753.203 220.586C753.395 217.102 755.919 214.082 759.803 214.082C763.51 214.082 765.939 216.831 765.955 220.586H753.203ZM775.939 235H780.717V220.011C780.717 216.799 783.194 214.482 786.581 214.482C787.572 214.482 788.691 214.657 789.074 214.769V210.199C788.595 210.135 787.652 210.087 787.045 210.087C784.168 210.087 781.707 211.717 780.812 214.354H780.557V210.455H775.939V235ZM487.641 266.273V287.398C487.641 291.841 484.573 295.037 479.587 295.037C474.618 295.037 471.533 291.841 471.533 287.398V266.273H466.596V287.798C466.596 294.669 471.741 299.543 479.587 299.543C487.434 299.543 492.595 294.669 492.595 287.798V266.273H487.641ZM504.712 266.273H499.774V299H504.712V266.273ZM523.984 264.739H519.717L509.171 303.922H513.437L523.984 264.739ZM549.472 266.273V287.398C549.472 291.841 546.404 295.037 541.418 295.037C536.449 295.037 533.364 291.841 533.364 287.398V266.273H528.427V287.798C528.427 294.669 533.572 299.543 541.418 299.543C549.265 299.543 554.426 294.669 554.426 287.798V266.273H549.472ZM565.041 266.273H559.32L569.691 282.636L559.256 299H565.009L572.871 286.376H573.127L580.989 299H586.742L576.483 282.636L586.678 266.273H580.957L573.127 279.073H572.871L565.041 266.273ZM603.485 299H624.195V294.749H608.423V284.73H622.933V280.495H608.423V270.523H624.004V266.273H603.485V299ZM634.994 284.426C634.994 280.511 637.391 278.274 640.715 278.274C643.959 278.274 645.924 280.399 645.924 283.963V299H650.702V283.387C650.702 277.315 647.363 274.135 642.345 274.135C638.653 274.135 636.24 275.845 635.106 278.45H634.802V274.455H630.216V299H634.994V284.426ZM668.568 274.455H663.534V268.574H658.756V274.455H655.161V278.29H658.756V292.784C658.74 297.242 662.144 299.4 665.915 299.32C667.434 299.304 668.456 299.016 669.016 298.808L668.153 294.861C667.833 294.925 667.242 295.069 666.475 295.069C664.925 295.069 663.534 294.558 663.534 291.793V278.29H668.568V274.455ZM679.159 284.426C679.159 280.511 681.636 278.274 685.04 278.274C688.332 278.274 690.297 280.367 690.297 283.963V299H695.075V283.387C695.075 277.267 691.719 274.135 686.67 274.135C682.85 274.135 680.549 275.797 679.399 278.45H679.095V266.273H674.381V299H679.159V284.426ZM717 288.821C717.016 292.991 713.916 294.973 711.231 294.973C708.275 294.973 706.229 292.832 706.229 289.492V274.455H701.451V290.067C701.451 296.156 704.791 299.32 709.505 299.32C713.197 299.32 715.706 297.37 716.84 294.749H717.096V299H721.794V274.455H717V288.821ZM746.607 280.447C745.616 276.628 742.628 274.135 737.323 274.135C731.778 274.135 727.846 277.059 727.846 281.406C727.846 284.89 729.956 287.207 734.558 288.229L738.713 289.14C741.078 289.668 742.181 290.722 742.181 292.256C742.181 294.158 740.151 295.644 737.019 295.644C734.159 295.644 732.321 294.414 731.746 292.001L727.127 292.704C727.926 297.05 731.538 299.495 737.051 299.495C742.98 299.495 747.086 296.347 747.086 291.905C747.086 288.437 744.881 286.296 740.375 285.257L736.476 284.362C733.775 283.723 732.608 282.812 732.624 281.15C732.608 279.265 734.654 277.922 737.371 277.922C740.343 277.922 741.717 279.568 742.276 281.214L746.607 280.447ZM752.34 299H757.118V274.455H752.34V299ZM754.753 270.667C756.399 270.667 757.773 269.389 757.773 267.823C757.773 266.257 756.399 264.962 754.753 264.962C753.091 264.962 751.733 266.257 751.733 267.823C751.733 269.389 753.091 270.667 754.753 270.667ZM770.689 299.543C774.748 299.543 777.033 297.482 777.944 295.644H778.136V299H782.802V282.7C782.802 275.557 777.177 274.135 773.278 274.135C768.835 274.135 764.744 275.925 763.146 280.399L767.637 281.422C768.34 279.68 770.13 278.002 773.342 278.002C776.426 278.002 778.008 279.616 778.008 282.397V282.509C778.008 284.25 776.218 284.218 771.808 284.73C767.157 285.273 762.395 286.488 762.395 292.065C762.395 296.891 766.023 299.543 770.689 299.543ZM771.728 295.708C769.027 295.708 767.078 294.494 767.078 292.129C767.078 289.572 769.347 288.661 772.111 288.293C773.661 288.086 777.337 287.67 778.024 286.983V290.147C778.024 293.055 775.707 295.708 771.728 295.708ZM807.559 280.447C806.568 276.628 803.58 274.135 798.275 274.135C792.73 274.135 788.799 277.059 788.799 281.406C788.799 284.89 790.908 287.207 795.51 288.229L799.665 289.14C802.03 289.668 803.133 290.722 803.133 292.256C803.133 294.158 801.103 295.644 797.971 295.644C795.111 295.644 793.273 294.414 792.698 292.001L788.079 292.704C788.878 297.05 792.49 299.495 798.003 299.495C803.932 299.495 808.039 296.347 808.039 291.905C808.039 288.437 805.833 286.296 801.327 285.257L797.428 284.362C794.727 283.723 793.561 282.812 793.577 281.15C793.561 279.265 795.606 277.922 798.323 277.922C801.295 277.922 802.669 279.568 803.229 281.214L807.559 280.447ZM824.75 274.455H819.716V268.574H814.938V274.455H811.343V278.29H814.938V292.784C814.922 297.242 818.326 299.4 822.097 299.32C823.615 299.304 824.638 299.016 825.197 298.808L824.334 294.861C824.015 294.925 823.423 295.069 822.656 295.069C821.106 295.069 819.716 294.558 819.716 291.793V278.29H824.75V274.455Z" fill="#2F2F2F"/>
<path d="M468.165 131H477.651V115.403L483.455 108.551L499.077 131H510.48L490.051 102.134L510.301 78.6364H498.719L478.29 102.696H477.651V78.6364H468.165V131ZM530.986 131.767C540.139 131.767 546.429 127.293 548.065 120.466L539.423 119.494C538.17 122.818 535.102 124.557 531.114 124.557C525.131 124.557 521.168 120.619 521.091 113.895H548.449V111.057C548.449 97.2756 540.165 91.2159 530.5 91.2159C519.25 91.2159 511.912 99.4744 511.912 111.594C511.912 123.918 519.148 131.767 530.986 131.767ZM521.116 107.656C521.398 102.645 525.105 98.4261 530.628 98.4261C535.946 98.4261 539.526 102.312 539.577 107.656H521.116ZM573.41 131.767C584.915 131.767 592.228 123.662 592.228 111.517C592.228 99.3466 584.915 91.2159 573.41 91.2159C561.904 91.2159 554.592 99.3466 554.592 111.517C554.592 123.662 561.904 131.767 573.41 131.767ZM573.461 124.352C567.094 124.352 563.975 118.676 563.975 111.491C563.975 104.307 567.094 98.554 573.461 98.554C579.725 98.554 582.844 104.307 582.844 111.491C582.844 118.676 579.725 124.352 573.461 124.352ZM609.339 107.989C609.339 102.312 612.766 99.0398 617.649 99.0398C622.43 99.0398 625.294 102.185 625.294 107.426V131H634.55V105.994C634.575 96.5852 629.206 91.2159 621.101 91.2159C615.22 91.2159 611.18 94.0284 609.391 98.4006H608.93V91.7273H600.084V131H609.339V107.989ZM655.26 131.793C661.422 131.793 665.104 128.903 666.791 125.605H667.098V131H675.996V104.716C675.996 94.3352 667.533 91.2159 660.041 91.2159C651.783 91.2159 645.442 94.8977 643.396 102.057L652.038 103.284C652.959 100.599 655.567 98.2983 660.092 98.2983C664.388 98.2983 666.74 100.497 666.74 104.358V104.511C666.74 107.17 663.953 107.298 657.024 108.04C649.405 108.858 642.118 111.134 642.118 119.98C642.118 127.702 647.768 131.793 655.26 131.793ZM657.663 124.991C653.803 124.991 651.041 123.227 651.041 119.827C651.041 116.273 654.135 114.79 658.277 114.202C660.706 113.869 665.564 113.256 666.766 112.284V116.912C666.766 121.284 663.237 124.991 657.663 124.991ZM703.571 131H713.057V115.403L718.861 108.551L734.483 131H745.886L725.457 102.134L745.707 78.6364H734.125L713.696 102.696H713.057V78.6364H703.571V131ZM754.349 131H763.605V91.7273H754.349V131ZM759.003 86.1534C761.943 86.1534 764.347 83.9034 764.347 81.142C764.347 78.3551 761.943 76.1051 759.003 76.1051C756.037 76.1051 753.634 78.3551 753.634 81.142C753.634 83.9034 756.037 86.1534 759.003 86.1534ZM773.123 131H782.379V107.912C782.379 102.926 786.137 99.3977 791.225 99.3977C792.785 99.3977 794.728 99.679 795.521 99.9347V91.4205C794.677 91.267 793.219 91.1648 792.197 91.1648C787.697 91.1648 783.938 93.7216 782.506 98.2727H782.097V91.7273H773.123V131ZM802.079 131H811.181V124.812H811.718C813.175 127.676 816.218 131.69 822.968 131.69C832.224 131.69 839.153 124.352 839.153 111.415C839.153 98.3239 832.019 91.2159 822.942 91.2159C816.013 91.2159 813.124 95.3835 811.718 98.2216H811.335V78.6364H802.079V131ZM811.156 111.364C811.156 103.744 814.428 98.8097 820.386 98.8097C826.548 98.8097 829.718 104.051 829.718 111.364C829.718 118.727 826.496 124.097 820.386 124.097C814.479 124.097 811.156 118.983 811.156 111.364ZM851.438 145.727C858.648 145.727 862.816 142.02 865.04 135.756L880.816 91.7784L870.921 91.7273L861.844 121.386H861.435L852.384 91.7273H842.566L856.808 131.818L856.015 133.94C854.302 138.415 851.592 138.722 847.552 137.545L845.404 144.756C846.657 145.267 848.907 145.727 851.438 145.727Z" fill="black"/>
</svg>
